<svg xmlns="http://www.w3.org/2000/svg" xmlns:xlink="http://www.w3.org/1999/xlink" width="223" zoomAndPan="magnify" viewBox="0 0 167.25 167.249997" height="223" preserveAspectRatio="xMidYMid meet" version="1.0"><defs><clipPath id="0825c58651"><path d="M 19.546875 24.335938 L 79.429688 24.335938 L 79.429688 142 L 19.546875 142 Z M 19.546875 24.335938 " clip-rule="nonzero"/></clipPath><clipPath id="c15094c789"><path d="M 78.9375 34.875 C 78.148438 31.65625 75.875 28.328125 72.449219 26.550781 C 70.761719 25.640625 68.90625 25.113281 67.0625 24.882812 C 65.21875 24.648438 63.394531 24.71875 61.613281 24.949219 C 59.835938 25.179688 58.089844 25.597656 56.390625 26.164062 C 55.96875 26.3125 55.550781 26.457031 55.128906 26.609375 C 54.710938 26.773438 54.292969 26.945312 53.875 27.109375 C 53.046875 27.460938 52.203125 27.839844 51.453125 28.230469 C 48.332031 29.757812 45.234375 31.589844 42.238281 33.742188 C 36.257812 38.039062 30.613281 43.683594 26.390625 50.78125 C 24.289062 54.332031 22.558594 58.191406 21.4375 62.414062 C 20.332031 66.601562 19.824219 70.996094 19.96875 75.429688 C 20.246094 84.28125 23.308594 92.980469 28.808594 99.640625 C 34.339844 106.324219 42.164062 110.507812 50.222656 111.390625 C 52.234375 111.59375 54.265625 111.621094 56.253906 111.382812 C 58.222656 111.144531 60.21875 110.675781 62.0625 109.992188 C 63.894531 109.28125 65.605469 108.398438 67.175781 107.359375 C 68.578125 106.382812 69.886719 105.324219 71.046875 104.136719 C 70.992188 104.386719 70.949219 104.636719 70.882812 104.894531 C 69.480469 110.699219 67.324219 116.15625 66.9375 122.183594 C 66.546875 128.238281 67.628906 134.335938 69.894531 139.945312 C 71.203125 143.1875 76.519531 141.773438 75.195312 138.484375 C 72.714844 132.332031 71.730469 125.714844 72.777344 119.128906 C 73.71875 113.226562 76.296875 107.738281 77 101.785156 C 77.371094 98.632812 77.480469 95.410156 77.34375 92.214844 C 77.480469 91.375 77.558594 90.523438 77.621094 89.695312 C 77.671875 87.988281 77.488281 86.347656 77.132812 84.800781 C 76.785156 83.253906 76.230469 81.804688 75.539062 80.472656 C 74.859375 79.136719 74.035156 77.917969 73.082031 76.84375 C 72.628906 76.289062 72.09375 75.816406 71.585938 75.328125 C 71.039062 74.882812 70.519531 74.433594 69.925781 74.070312 C 68.792969 73.292969 67.554688 72.734375 66.332031 72.339844 C 66.019531 72.253906 65.710938 72.167969 65.410156 72.082031 C 65.105469 71.996094 64.761719 71.964844 64.453125 71.902344 C 63.816406 71.777344 63.1875 71.773438 62.578125 71.765625 C 61.964844 71.746094 61.382812 71.851562 60.8125 71.898438 C 60.25 72.007812 59.703125 72.121094 59.183594 72.265625 C 57.117188 72.886719 55.457031 73.90625 54.171875 75.03125 C 52.882812 76.152344 52 77.421875 51.445312 78.609375 C 51.144531 79.183594 50.976562 79.78125 50.828125 80.296875 C 50.6875 80.820312 50.65625 81.328125 50.597656 81.757812 C 50.597656 82.207031 50.621094 82.585938 50.65625 82.910156 C 50.6875 83.234375 50.800781 83.503906 50.871094 83.714844 C 51.039062 84.136719 51.207031 84.324219 51.386719 84.3125 C 51.5625 84.300781 51.734375 84.089844 51.914062 83.726562 C 52.011719 83.546875 52.066406 83.324219 52.191406 83.074219 C 52.316406 82.824219 52.445312 82.539062 52.578125 82.230469 C 52.769531 81.933594 52.925781 81.597656 53.15625 81.257812 C 53.410156 80.921875 53.640625 80.550781 53.980469 80.203125 C 54.605469 79.492188 55.4375 78.753906 56.503906 78.160156 C 57.558594 77.5625 58.84375 77.082031 60.230469 76.898438 C 60.582031 76.863281 60.929688 76.851562 61.285156 76.824219 C 61.636719 76.863281 61.996094 76.832031 62.347656 76.902344 C 62.695312 76.960938 63.050781 77.007812 63.378906 77.132812 C 63.550781 77.191406 63.714844 77.210938 63.894531 77.296875 C 64.070312 77.371094 64.25 77.449219 64.425781 77.527344 C 65.132812 77.863281 65.824219 78.273438 66.457031 78.832031 C 66.792969 79.082031 67.074219 79.414062 67.382812 79.714844 C 67.660156 80.066406 67.972656 80.378906 68.222656 80.769531 C 68.761719 81.507812 69.214844 82.351562 69.578125 83.265625 C 69.945312 84.167969 70.230469 85.144531 70.367188 86.15625 C 71.054688 90.089844 69.355469 94.765625 65.75 98.191406 C 64.855469 99.054688 63.828125 99.808594 62.746094 100.496094 C 61.648438 101.152344 60.46875 101.699219 59.242188 102.128906 C 58.003906 102.53125 56.753906 102.773438 55.390625 102.90625 C 54.039062 103.023438 52.652344 102.964844 51.25 102.789062 C 45.625 102.035156 39.875 98.761719 35.949219 93.804688 C 31.988281 88.8125 29.632812 82.121094 29.429688 75.105469 C 29.324219 71.601562 29.71875 68.117188 30.566406 64.816406 C 31.390625 61.539062 32.753906 58.355469 34.421875 55.433594 C 37.757812 49.558594 42.382812 44.617188 47.429688 40.710938 C 49.949219 38.753906 52.589844 37.050781 55.265625 35.582031 C 55.945312 35.191406 56.5625 34.875 57.203125 34.566406 C 57.523438 34.421875 57.839844 34.269531 58.15625 34.125 C 58.480469 33.992188 58.796875 33.863281 59.117188 33.730469 C 60.402344 33.242188 61.679688 32.839844 62.914062 32.550781 C 65.394531 31.964844 67.695312 32.015625 69.414062 32.722656 C 69.855469 32.878906 70.238281 33.128906 70.632812 33.359375 C 70.808594 33.507812 70.988281 33.652344 71.171875 33.789062 C 71.355469 33.925781 71.488281 34.113281 71.660156 34.261719 C 72.273438 34.929688 72.734375 35.707031 73.070312 36.59375 C 73.410156 37.476562 73.554688 38.480469 73.621094 39.488281 C 73.6875 40.492188 73.621094 41.542969 73.476562 42.554688 C 73.199219 44.597656 72.59375 46.546875 71.875 48.296875 C 71.132812 50.089844 70.257812 51.804688 69.492188 53.402344 C 68.714844 55.003906 68.003906 56.511719 67.445312 57.914062 C 66.292969 60.714844 65.796875 63.105469 65.71875 64.710938 C 65.691406 65.523438 65.710938 66.132812 65.808594 66.554688 C 65.890625 66.972656 65.996094 67.183594 66.125 67.195312 C 66.257812 67.207031 66.410156 67.015625 66.585938 66.648438 C 66.746094 66.28125 66.976562 65.738281 67.246094 65.046875 C 67.804688 63.664062 68.746094 61.722656 70.25 59.332031 C 71 58.132812 71.882812 56.820312 72.878906 55.351562 C 73.867188 53.878906 74.972656 52.277344 76.058594 50.359375 C 77.160156 48.402344 78.140625 46.183594 78.777344 43.621094 C 79.101562 42.34375 79.34375 40.976562 79.398438 39.511719 C 79.449219 38.050781 79.390625 36.488281 78.964844 34.875 " clip-rule="nonzero"/></clipPath><clipPath id="d49c27fdd0"><path d="M 0.59375 0.609375 L 60.429688 0.609375 L 60.429688 118 L 0.59375 118 Z M 0.59375 0.609375 " clip-rule="nonzero"/></clipPath><clipPath id="5393617ee4"><path d="M 59.9375 10.875 C 59.148438 7.65625 56.875 4.328125 53.449219 2.550781 C 51.761719 1.640625 49.90625 1.113281 48.0625 0.882812 C 46.21875 0.648438 44.394531 0.71875 42.613281 0.949219 C 40.835938 1.179688 39.089844 1.597656 37.390625 2.164062 C 36.96875 2.3125 36.550781 2.457031 36.128906 2.609375 C 35.710938 2.773438 35.292969 2.945312 34.875 3.109375 C 34.046875 3.460938 33.203125 3.839844 32.453125 4.230469 C 29.332031 5.757812 26.234375 7.589844 23.238281 9.742188 C 17.257812 14.039062 11.613281 19.683594 7.390625 26.78125 C 5.289062 30.332031 3.558594 34.191406 2.4375 38.414062 C 1.332031 42.601562 0.824219 46.996094 0.96875 51.429688 C 1.246094 60.28125 4.308594 68.980469 9.808594 75.640625 C 15.339844 82.324219 23.164062 86.507812 31.222656 87.390625 C 33.234375 87.59375 35.265625 87.621094 37.253906 87.382812 C 39.222656 87.144531 41.21875 86.675781 43.0625 85.992188 C 44.894531 85.28125 46.605469 84.398438 48.175781 83.359375 C 49.578125 82.382812 50.886719 81.324219 52.046875 80.136719 C 51.992188 80.386719 51.949219 80.636719 51.882812 80.894531 C 50.480469 86.699219 48.324219 92.15625 47.9375 98.183594 C 47.546875 104.238281 48.628906 110.335938 50.894531 115.945312 C 52.203125 119.1875 57.519531 117.773438 56.195312 114.484375 C 53.714844 108.332031 52.730469 101.714844 53.777344 95.128906 C 54.71875 89.226562 57.296875 83.738281 58 77.785156 C 58.371094 74.632812 58.480469 71.410156 58.34375 68.214844 C 58.480469 67.375 58.558594 66.523438 58.621094 65.695312 C 58.671875 63.988281 58.488281 62.347656 58.132812 60.800781 C 57.785156 59.253906 57.230469 57.804688 56.539062 56.472656 C 55.859375 55.136719 55.035156 53.917969 54.082031 52.84375 C 53.628906 52.289062 53.09375 51.816406 52.585938 51.328125 C 52.039062 50.882812 51.519531 50.433594 50.925781 50.070312 C 49.792969 49.292969 48.554688 48.734375 47.332031 48.339844 C 47.019531 48.253906 46.710938 48.167969 46.410156 48.082031 C 46.105469 47.996094 45.761719 47.964844 45.453125 47.902344 C 44.816406 47.777344 44.1875 47.773438 43.578125 47.765625 C 42.964844 47.746094 42.382812 47.851562 41.8125 47.898438 C 41.25 48.007812 40.703125 48.121094 40.183594 48.265625 C 38.117188 48.886719 36.457031 49.90625 35.171875 51.03125 C 33.882812 52.152344 33 53.421875 32.445312 54.609375 C 32.144531 55.183594 31.976562 55.78125 31.828125 56.296875 C 31.6875 56.820312 31.65625 57.328125 31.597656 57.757812 C 31.597656 58.207031 31.621094 58.585938 31.65625 58.910156 C 31.6875 59.234375 31.800781 59.503906 31.871094 59.714844 C 32.039062 60.136719 32.207031 60.324219 32.386719 60.3125 C 32.5625 60.300781 32.734375 60.089844 32.914062 59.726562 C 33.011719 59.546875 33.066406 59.324219 33.191406 59.074219 C 33.316406 58.824219 33.445312 58.539062 33.578125 58.230469 C 33.769531 57.933594 33.925781 57.597656 34.15625 57.257812 C 34.410156 56.921875 34.640625 56.550781 34.980469 56.203125 C 35.605469 55.492188 36.4375 54.753906 37.503906 54.160156 C 38.558594 53.5625 39.84375 53.082031 41.230469 52.898438 C 41.582031 52.863281 41.929688 52.851562 42.285156 52.824219 C 42.636719 52.863281 42.996094 52.832031 43.347656 52.902344 C 43.695312 52.960938 44.050781 53.007812 44.378906 53.132812 C 44.550781 53.191406 44.714844 53.210938 44.894531 53.296875 C 45.070312 53.371094 45.25 53.449219 45.425781 53.527344 C 46.132812 53.863281 46.824219 54.273438 47.457031 54.832031 C 47.792969 55.082031 48.074219 55.414062 48.382812 55.714844 C 48.660156 56.066406 48.972656 56.378906 49.222656 56.769531 C 49.761719 57.507812 50.214844 58.351562 50.578125 59.265625 C 50.945312 60.167969 51.230469 61.144531 51.367188 62.15625 C 52.054688 66.089844 50.355469 70.765625 46.75 74.191406 C 45.855469 75.054688 44.828125 75.808594 43.746094 76.496094 C 42.648438 77.152344 41.46875 77.699219 40.242188 78.128906 C 39.003906 78.53125 37.753906 78.773438 36.390625 78.90625 C 35.039062 79.023438 33.652344 78.964844 32.25 78.789062 C 26.625 78.035156 20.875 74.761719 16.949219 69.804688 C 12.988281 64.8125 10.632812 58.121094 10.429688 51.105469 C 10.324219 47.601562 10.71875 44.117188 11.566406 40.816406 C 12.390625 37.539062 13.753906 34.355469 15.421875 31.433594 C 18.757812 25.558594 23.382812 20.617188 28.429688 16.710938 C 30.949219 14.753906 33.589844 13.050781 36.265625 11.582031 C 36.945312 11.191406 37.5625 10.875 38.203125 10.566406 C 38.523438 10.421875 38.839844 10.269531 39.15625 10.125 C 39.480469 9.992188 39.796875 9.863281 40.117188 9.730469 C 41.402344 9.242188 42.679688 8.839844 43.914062 8.550781 C 46.394531 7.964844 48.695312 8.015625 50.414062 8.722656 C 50.855469 8.878906 51.238281 9.128906 51.632812 9.359375 C 51.808594 9.507812 51.988281 9.652344 52.171875 9.789062 C 52.355469 9.925781 52.488281 10.113281 52.660156 10.261719 C 53.273438 10.929688 53.734375 11.707031 54.070312 12.59375 C 54.410156 13.476562 54.554688 14.480469 54.621094 15.488281 C 54.6875 16.492188 54.621094 17.542969 54.476562 18.554688 C 54.199219 20.597656 53.59375 22.546875 52.875 24.296875 C 52.132812 26.089844 51.257812 27.804688 50.492188 29.402344 C 49.714844 31.003906 49.003906 32.511719 48.445312 33.914062 C 47.292969 36.714844 46.796875 39.105469 46.71875 40.710938 C 46.691406 41.523438 46.710938 42.132812 46.808594 42.554688 C 46.890625 42.972656 46.996094 43.183594 47.125 43.195312 C 47.257812 43.207031 47.410156 43.015625 47.585938 42.648438 C 47.746094 42.28125 47.976562 41.738281 48.246094 41.046875 C 48.804688 39.664062 49.746094 37.722656 51.25 35.332031 C 52 34.132812 52.882812 32.820312 53.878906 31.351562 C 54.867188 29.878906 55.972656 28.277344 57.058594 26.359375 C 58.160156 24.402344 59.140625 22.183594 59.777344 19.621094 C 60.101562 18.34375 60.34375 16.976562 60.398438 15.511719 C 60.449219 14.050781 60.390625 12.488281 59.964844 10.875 " clip-rule="nonzero"/></clipPath><clipPath id="40919ca5b0"><rect x="0" width="61" y="0" height="118"/></clipPath><clipPath id="304c61c9dd"><path d="M 87 24.335938 L 147 24.335938 L 147 142 L 87 142 Z M 87 24.335938 " clip-rule="nonzero"/></clipPath><clipPath id="e51c81126f"><path d="M 145.0625 62.40625 C 143.945312 58.191406 142.210938 54.324219 140.109375 50.773438 C 135.894531 43.675781 130.246094 38.039062 124.265625 33.738281 C 121.265625 31.582031 118.171875 29.757812 115.050781 28.222656 C 114.292969 27.835938 113.449219 27.453125 112.625 27.105469 C 112.203125 26.933594 111.789062 26.769531 111.375 26.605469 C 110.953125 26.453125 110.523438 26.308594 110.109375 26.15625 C 108.410156 25.589844 106.671875 25.167969 104.886719 24.945312 C 103.101562 24.71875 101.289062 24.640625 99.441406 24.878906 C 97.601562 25.109375 95.738281 25.640625 94.050781 26.542969 C 90.621094 28.324219 88.355469 31.648438 87.566406 34.871094 C 87.136719 36.484375 87.078125 38.042969 87.128906 39.507812 C 87.183594 40.976562 87.425781 42.339844 87.75 43.617188 C 88.386719 46.179688 89.375 48.398438 90.476562 50.359375 C 91.5625 52.277344 92.667969 53.878906 93.65625 55.351562 C 94.652344 56.820312 95.542969 58.132812 96.285156 59.332031 C 97.785156 61.722656 98.730469 63.65625 99.289062 65.046875 C 99.558594 65.738281 99.78125 66.28125 99.949219 66.648438 C 100.117188 67.011719 100.277344 67.203125 100.410156 67.1875 C 100.539062 67.175781 100.644531 66.964844 100.722656 66.554688 C 100.816406 66.140625 100.84375 65.527344 100.816406 64.710938 C 100.738281 63.105469 100.242188 60.714844 99.089844 57.914062 C 98.523438 56.511719 97.820312 55.003906 97.035156 53.402344 C 96.265625 51.804688 95.394531 50.089844 94.652344 48.296875 C 93.933594 46.546875 93.328125 44.597656 93.050781 42.554688 C 92.90625 41.542969 92.835938 40.5 92.90625 39.488281 C 92.980469 38.472656 93.117188 37.472656 93.460938 36.59375 C 93.789062 35.707031 94.257812 34.921875 94.871094 34.261719 C 95.035156 34.113281 95.164062 33.925781 95.355469 33.789062 C 95.546875 33.652344 95.71875 33.507812 95.898438 33.367188 C 96.292969 33.136719 96.675781 32.886719 97.113281 32.730469 C 98.835938 32.03125 101.132812 31.972656 103.617188 32.5625 C 104.847656 32.855469 106.125 33.25 107.410156 33.742188 C 107.726562 33.875 108.046875 34.007812 108.371094 34.136719 C 108.6875 34.28125 109.011719 34.429688 109.328125 34.578125 C 109.964844 34.890625 110.585938 35.207031 111.261719 35.59375 C 113.9375 37.0625 116.570312 38.769531 119.09375 40.722656 C 124.140625 44.628906 128.769531 49.570312 132.101562 55.445312 C 133.761719 58.363281 135.125 61.550781 135.953125 64.832031 C 136.804688 68.125 137.199219 71.613281 137.09375 75.117188 C 136.894531 82.132812 134.539062 88.832031 130.574219 93.816406 C 126.648438 98.777344 120.898438 102.054688 115.273438 102.800781 C 113.871094 102.976562 112.480469 103.039062 111.128906 102.917969 C 109.765625 102.789062 108.515625 102.542969 107.277344 102.140625 C 106.054688 101.707031 104.875 101.167969 103.773438 100.507812 C 102.695312 99.816406 101.667969 99.066406 100.769531 98.203125 C 97.160156 94.773438 95.46875 90.09375 96.152344 86.164062 C 96.292969 85.15625 96.574219 84.179688 96.945312 83.273438 C 97.304688 82.363281 97.761719 81.511719 98.300781 80.777344 C 98.550781 80.386719 98.859375 80.070312 99.136719 79.722656 C 99.445312 79.425781 99.738281 79.089844 100.074219 78.839844 C 100.703125 78.28125 101.394531 77.871094 102.101562 77.535156 C 102.277344 77.457031 102.457031 77.382812 102.632812 77.304688 C 102.8125 77.21875 102.976562 77.199219 103.148438 77.140625 C 103.476562 77.015625 103.832031 76.96875 104.183594 76.910156 C 104.53125 76.835938 104.894531 76.871094 105.242188 76.832031 C 105.597656 76.851562 105.949219 76.863281 106.296875 76.902344 C 107.6875 77.082031 108.964844 77.566406 110.023438 78.167969 C 111.089844 78.761719 111.921875 79.5 112.546875 80.210938 C 112.890625 80.550781 113.113281 80.925781 113.371094 81.261719 C 113.601562 81.605469 113.757812 81.941406 113.949219 82.238281 C 114.082031 82.546875 114.214844 82.832031 114.339844 83.082031 C 114.464844 83.332031 114.523438 83.554688 114.613281 83.734375 C 114.785156 84.09375 114.964844 84.3125 115.140625 84.320312 C 115.320312 84.324219 115.484375 84.140625 115.648438 83.71875 C 115.722656 83.507812 115.832031 83.238281 115.867188 82.917969 C 115.898438 82.59375 115.925781 82.207031 115.925781 81.765625 C 115.871094 81.335938 115.832031 80.835938 115.695312 80.300781 C 115.535156 79.78125 115.378906 79.1875 115.074219 78.609375 C 114.523438 77.429688 113.632812 76.160156 112.347656 75.03125 C 111.070312 73.90625 109.40625 72.886719 107.335938 72.265625 C 106.816406 72.121094 106.269531 72.007812 105.71875 71.898438 C 105.144531 71.851562 104.5625 71.738281 103.953125 71.757812 C 103.339844 71.765625 102.714844 71.773438 102.074219 71.898438 C 101.757812 71.957031 101.421875 71.984375 101.121094 72.070312 C 100.816406 72.15625 100.507812 72.238281 100.191406 72.324219 C 98.964844 72.722656 97.722656 73.28125 96.59375 74.058594 C 96.007812 74.421875 95.488281 74.875 94.933594 75.316406 C 94.433594 75.796875 93.894531 76.277344 93.441406 76.832031 C 92.484375 77.898438 91.660156 79.121094 90.984375 80.460938 C 90.292969 81.789062 89.738281 83.238281 89.390625 84.785156 C 89.035156 86.335938 88.84375 87.976562 88.902344 89.679688 C 88.960938 90.511719 89.039062 91.347656 89.171875 92.191406 C 89.035156 95.382812 89.144531 98.617188 89.515625 101.773438 C 90.191406 107.550781 92.636719 112.878906 93.644531 118.582031 C 94.835938 125.332031 93.867188 132.15625 91.320312 138.476562 C 89.996094 141.757812 95.308594 143.179688 96.621094 139.941406 C 98.820312 134.492188 99.894531 128.597656 99.605469 122.71875 C 99.296875 116.492188 97.082031 110.875 95.632812 104.886719 C 95.574219 104.636719 95.519531 104.386719 95.46875 104.132812 C 96.632812 105.308594 97.9375 106.375 99.339844 107.351562 C 100.910156 108.390625 102.621094 109.273438 104.453125 109.984375 C 106.289062 110.671875 108.285156 111.132812 110.261719 111.375 C 112.25 111.613281 114.277344 111.59375 116.292969 111.382812 C 124.347656 110.5 132.175781 106.3125 137.707031 99.632812 C 143.207031 92.972656 146.269531 84.273438 146.546875 75.421875 C 146.691406 70.980469 146.183594 66.589844 145.078125 62.40625 " clip-rule="nonzero"/></clipPath><clipPath id="66b1ce6ea9"><path d="M 0 0.609375 L 59.703125 0.609375 L 59.703125 118 L 0 118 Z M 0 0.609375 " clip-rule="nonzero"/></clipPath><clipPath id="16ed7aa627"><path d="M 58.0625 38.40625 C 56.945312 34.191406 55.210938 30.324219 53.109375 26.773438 C 48.894531 19.675781 43.246094 14.039062 37.265625 9.738281 C 34.265625 7.582031 31.171875 5.757812 28.050781 4.222656 C 27.292969 3.835938 26.449219 3.453125 25.625 3.105469 C 25.203125 2.933594 24.789062 2.769531 24.375 2.605469 C 23.953125 2.453125 23.523438 2.308594 23.109375 2.15625 C 21.410156 1.589844 19.671875 1.167969 17.886719 0.945312 C 16.101562 0.71875 14.289062 0.640625 12.441406 0.878906 C 10.601562 1.109375 8.738281 1.640625 7.050781 2.542969 C 3.621094 4.324219 1.355469 7.648438 0.566406 10.871094 C 0.136719 12.484375 0.078125 14.042969 0.128906 15.507812 C 0.183594 16.976562 0.425781 18.339844 0.75 19.617188 C 1.386719 22.179688 2.375 24.398438 3.476562 26.359375 C 4.5625 28.277344 5.667969 29.878906 6.65625 31.351562 C 7.652344 32.820312 8.542969 34.132812 9.285156 35.332031 C 10.785156 37.722656 11.730469 39.65625 12.289062 41.046875 C 12.558594 41.738281 12.78125 42.28125 12.949219 42.648438 C 13.117188 43.011719 13.277344 43.203125 13.410156 43.1875 C 13.539062 43.175781 13.644531 42.964844 13.722656 42.554688 C 13.816406 42.140625 13.84375 41.527344 13.816406 40.710938 C 13.738281 39.105469 13.242188 36.714844 12.089844 33.914062 C 11.523438 32.511719 10.820312 31.003906 10.035156 29.402344 C 9.265625 27.804688 8.394531 26.089844 7.652344 24.296875 C 6.933594 22.546875 6.328125 20.597656 6.050781 18.554688 C 5.90625 17.542969 5.835938 16.5 5.90625 15.488281 C 5.980469 14.472656 6.117188 13.472656 6.460938 12.59375 C 6.789062 11.707031 7.257812 10.921875 7.871094 10.261719 C 8.035156 10.113281 8.164062 9.925781 8.355469 9.789062 C 8.546875 9.652344 8.71875 9.507812 8.898438 9.367188 C 9.292969 9.136719 9.675781 8.886719 10.113281 8.730469 C 11.835938 8.03125 14.132812 7.972656 16.617188 8.5625 C 17.847656 8.855469 19.125 9.25 20.410156 9.742188 C 20.726562 9.875 21.046875 10.007812 21.371094 10.136719 C 21.6875 10.28125 22.011719 10.429688 22.328125 10.578125 C 22.964844 10.890625 23.585938 11.207031 24.261719 11.59375 C 26.9375 13.0625 29.570312 14.769531 32.09375 16.722656 C 37.140625 20.628906 41.769531 25.570312 45.101562 31.445312 C 46.761719 34.363281 48.125 37.550781 48.953125 40.832031 C 49.804688 44.125 50.199219 47.613281 50.09375 51.117188 C 49.894531 58.132812 47.539062 64.832031 43.574219 69.816406 C 39.648438 74.777344 33.898438 78.054688 28.273438 78.800781 C 26.871094 78.976562 25.480469 79.039062 24.128906 78.917969 C 22.765625 78.789062 21.515625 78.542969 20.277344 78.140625 C 19.054688 77.707031 17.875 77.167969 16.773438 76.507812 C 15.695312 75.816406 14.667969 75.066406 13.769531 74.203125 C 10.160156 70.773438 8.46875 66.09375 9.152344 62.164062 C 9.292969 61.15625 9.574219 60.179688 9.945312 59.273438 C 10.304688 58.363281 10.761719 57.511719 11.300781 56.777344 C 11.550781 56.386719 11.859375 56.070312 12.136719 55.722656 C 12.445312 55.425781 12.738281 55.089844 13.074219 54.839844 C 13.703125 54.28125 14.394531 53.871094 15.101562 53.535156 C 15.277344 53.457031 15.457031 53.382812 15.632812 53.304688 C 15.8125 53.21875 15.976562 53.199219 16.148438 53.140625 C 16.476562 53.015625 16.832031 52.96875 17.183594 52.910156 C 17.53125 52.835938 17.894531 52.871094 18.242188 52.832031 C 18.597656 52.851562 18.949219 52.863281 19.296875 52.902344 C 20.6875 53.082031 21.964844 53.566406 23.023438 54.167969 C 24.089844 54.761719 24.921875 55.5 25.546875 56.210938 C 25.890625 56.550781 26.113281 56.925781 26.371094 57.261719 C 26.601562 57.605469 26.757812 57.941406 26.949219 58.238281 C 27.082031 58.546875 27.214844 58.832031 27.339844 59.082031 C 27.464844 59.332031 27.523438 59.554688 27.613281 59.734375 C 27.785156 60.09375 27.964844 60.3125 28.140625 60.320312 C 28.320312 60.324219 28.484375 60.140625 28.648438 59.71875 C 28.722656 59.507812 28.832031 59.238281 28.867188 58.917969 C 28.898438 58.59375 28.925781 58.207031 28.925781 57.765625 C 28.871094 57.335938 28.832031 56.835938 28.695312 56.300781 C 28.535156 55.78125 28.378906 55.1875 28.074219 54.609375 C 27.523438 53.429688 26.632812 52.160156 25.347656 51.03125 C 24.070312 49.90625 22.40625 48.886719 20.335938 48.265625 C 19.816406 48.121094 19.269531 48.007812 18.71875 47.898438 C 18.144531 47.851562 17.5625 47.738281 16.953125 47.757812 C 16.339844 47.765625 15.714844 47.773438 15.074219 47.898438 C 14.757812 47.957031 14.421875 47.984375 14.121094 48.070312 C 13.816406 48.15625 13.507812 48.238281 13.191406 48.324219 C 11.964844 48.722656 10.722656 49.28125 9.59375 50.058594 C 9.007812 50.421875 8.488281 50.875 7.933594 51.316406 C 7.433594 51.796875 6.894531 52.277344 6.441406 52.832031 C 5.484375 53.898438 4.660156 55.121094 3.984375 56.460938 C 3.292969 57.789062 2.738281 59.238281 2.390625 60.785156 C 2.035156 62.335938 1.84375 63.976562 1.902344 65.679688 C 1.960938 66.511719 2.039062 67.347656 2.171875 68.191406 C 2.035156 71.382812 2.144531 74.617188 2.515625 77.773438 C 3.191406 83.550781 5.636719 88.878906 6.644531 94.582031 C 7.835938 101.332031 6.867188 108.15625 4.320312 114.476562 C 2.996094 117.757812 8.308594 119.179688 9.621094 115.941406 C 11.820312 110.492188 12.894531 104.597656 12.605469 98.71875 C 12.296875 92.492188 10.082031 86.875 8.632812 80.886719 C 8.574219 80.636719 8.519531 80.386719 8.46875 80.132812 C 9.632812 81.308594 10.9375 82.375 12.339844 83.351562 C 13.910156 84.390625 15.621094 85.273438 17.453125 85.984375 C 19.289062 86.671875 21.285156 87.132812 23.261719 87.375 C 25.25 87.613281 27.277344 87.59375 29.292969 87.382812 C 37.347656 86.5 45.175781 82.3125 50.707031 75.632812 C 56.207031 68.972656 59.269531 60.273438 59.546875 51.421875 C 59.691406 46.980469 59.183594 42.589844 58.078125 38.40625 " clip-rule="nonzero"/></clipPath><clipPath id="7a8ed5d9fb"><rect x="0" width="60" y="0" height="118"/></clipPath><clipPath id="edc585ae39"><path d="M 75.566406 60.070312 L 91 60.070312 L 91 75.523438 L 75.566406 75.523438 Z M 75.566406 60.070312 " clip-rule="nonzero"/></clipPath><clipPath id="5042cb0b2c"><path d="M 90.707031 67.859375 C 90.707031 71.976562 87.367188 75.316406 83.25 75.316406 C 79.132812 75.316406 75.796875 71.976562 75.796875 67.859375 C 75.796875 63.742188 79.132812 60.40625 83.25 60.40625 C 87.367188 60.40625 90.707031 63.742188 90.707031 67.859375 " clip-rule="nonzero"/></clipPath><clipPath id="fd50971067"><path d="M 0.742188 0.210938 L 15.792969 0.210938 L 15.792969 15.5 L 0.742188 15.5 Z M 0.742188 0.210938 " clip-rule="nonzero"/></clipPath><clipPath id="f3b51bef64"><path d="M 15.707031 7.859375 C 15.707031 11.976562 12.367188 15.316406 8.25 15.316406 C 4.132812 15.316406 0.796875 11.976562 0.796875 7.859375 C 0.796875 3.742188 4.132812 0.40625 8.25 0.40625 C 12.367188 0.40625 15.707031 3.742188 15.707031 7.859375 " clip-rule="nonzero"/></clipPath><clipPath id="1ddec69668"><rect x="0" width="16" y="0" height="16"/></clipPath></defs><g clip-path="url(#0825c58651)"><g clip-path="url(#c15094c789)"><g transform="matrix(1, 0, 0, 1, 19, 24)"><g clip-path="url(#40919ca5b0)"><g clip-path="url(#d49c27fdd0)"><g clip-path="url(#5393617ee4)"><rect x="-55.795" width="240.84" fill="#062149" height="240.839996" y="-60.794999" fill-opacity="1"/></g></g></g></g></g></g><g clip-path="url(#304c61c9dd)"><g clip-path="url(#e51c81126f)"><g transform="matrix(1, 0, 0, 1, 87, 24)"><g clip-path="url(#7a8ed5d9fb)"><g clip-path="url(#66b1ce6ea9)"><g clip-path="url(#16ed7aa627)"><rect x="-123.795" width="240.84" fill="#062149" height="240.839996" y="-60.794999" fill-opacity="1"/></g></g></g></g></g></g><g clip-path="url(#edc585ae39)"><g clip-path="url(#5042cb0b2c)"><g transform="matrix(1, 0, 0, 1, 75, 60)"><g clip-path="url(#1ddec69668)"><g clip-path="url(#fd50971067)"><g clip-path="url(#f3b51bef64)"><rect x="-111.795" width="240.84" fill="#062149" height="240.839996" y="-96.794999" fill-opacity="1"/></g></g></g></g></g></g></svg>