<svg xmlns="http://www.w3.org/2000/svg" xmlns:xlink="http://www.w3.org/1999/xlink" zoomAndPan="magnify" viewBox="63 74 990 467" preserveAspectRatio="xMidYMid meet" version="1.0"><defs><g/><clipPath id="94065d72a2"><path d="M 0.46875 0 L 1124.53125 0 L 1124.53125 601 L 0.46875 601 Z M 0.46875 0 " clip-rule="nonzero"/></clipPath><clipPath id="0ce4c408e6"><path d="M 0.839844 0.300781 L 594 0.300781 L 594 181 L 0.839844 181 Z M 0.839844 0.300781 " clip-rule="nonzero"/></clipPath><clipPath id="60b5910312"><rect x="0" width="594" y="0" height="181"/></clipPath><clipPath id="b00c0c074d"><path d="M 0.839844 139 L 957.644531 139 L 957.644531 320 L 0.839844 320 Z M 0.839844 139 " clip-rule="nonzero"/></clipPath><clipPath id="2edd2a3b11"><path d="M 452 41 L 561 41 L 561 180.957031 L 452 180.957031 Z M 452 41 " clip-rule="nonzero"/></clipPath><clipPath id="ef936e3f00"><rect x="0" width="958" y="0" height="181"/></clipPath><clipPath id="7f97645b84"><rect x="0" width="242" y="0" height="170"/></clipPath><clipPath id="c9dbcac195"><path d="M 0.839844 283 L 64 283 L 64 455.921875 L 0.839844 455.921875 Z M 0.839844 283 " clip-rule="nonzero"/></clipPath><clipPath id="1cad0d832a"><rect x="0" width="64" y="0" height="173"/></clipPath><clipPath id="2091bbedb7"><path d="M 296 283 L 359 283 L 359 455.921875 L 296 455.921875 Z M 296 283 " clip-rule="nonzero"/></clipPath><clipPath id="d070ebdc47"><rect x="0" width="63" y="0" height="173"/></clipPath><clipPath id="20535fae9b"><rect x="0" width="958" y="0" height="456"/></clipPath></defs><g clip-path="url(#94065d72a2)"><path fill="#ffffff" d="M 0.46875 0 L 1124.53125 0 L 1124.53125 601 L 0.46875 601 Z M 0.46875 0 " fill-opacity="1" fill-rule="nonzero"/><path fill="#f4f2ec" d="M 0.46875 0 L 1124.53125 0 L 1124.53125 601 L 0.46875 601 Z M 0.46875 0 " fill-opacity="1" fill-rule="nonzero"/></g><g transform="matrix(1, 0, 0, 1, 79, 69)"><g clip-path="url(#20535fae9b)"><g clip-path="url(#0ce4c408e6)"><g><g clip-path="url(#60b5910312)"><g fill="#1a1e2d" fill-opacity="1"><g transform="translate(1.051894, 144.864555)"><g><path d="M 66.53125 -115.84375 C 83.414062 -115.84375 96.765625 -111.625 106.578125 -103.1875 C 116.398438 -94.75 121.3125 -82.695312 121.3125 -67.03125 L 86.390625 -67.03125 C 86.390625 -73.644531 84.648438 -78.882812 81.171875 -82.75 C 77.703125 -86.613281 72.765625 -88.546875 66.359375 -88.546875 C 58.972656 -88.546875 53.539062 -86.226562 50.0625 -81.59375 C 46.582031 -76.957031 44.84375 -70.503906 44.84375 -62.234375 L 44.84375 -51.640625 C 44.84375 -43.472656 46.582031 -37.046875 50.0625 -32.359375 C 53.539062 -27.671875 58.863281 -25.328125 66.03125 -25.328125 C 73.09375 -25.328125 78.441406 -27.144531 82.078125 -30.78125 C 85.722656 -34.425781 87.546875 -39.554688 87.546875 -46.171875 L 121.3125 -46.171875 C 121.3125 -30.617188 116.539062 -18.703125 107 -10.421875 C 97.457031 -2.148438 83.96875 1.984375 66.53125 1.984375 C 47.113281 1.984375 32.410156 -2.976562 22.421875 -12.90625 C 12.441406 -22.832031 7.453125 -37.507812 7.453125 -56.9375 C 7.453125 -76.351562 12.441406 -91.023438 22.421875 -100.953125 C 32.410156 -110.878906 47.113281 -115.84375 66.53125 -115.84375 Z M 66.53125 -115.84375 "/></g></g></g><g fill="#1a1e2d" fill-opacity="1"><g transform="translate(118.719794, 144.864555)"><g><path d="M 11.09375 0 L 11.09375 -119.984375 L 44.015625 -119.984375 L 44.015625 0 Z M 11.09375 0 "/></g></g></g><g fill="#1a1e2d" fill-opacity="1"><g transform="translate(162.74149, 144.864555)"><g><path d="M 11.09375 -97.640625 L 11.09375 -119.984375 L 44.015625 -119.984375 L 44.015625 -97.640625 Z M 11.09375 0 L 11.09375 -87.390625 L 44.015625 -87.390625 L 44.015625 0 Z M 11.09375 0 "/></g></g></g><g fill="#1a1e2d" fill-opacity="1"><g transform="translate(206.763185, 144.864555)"><g><path d="M 70.171875 -89.375 C 80.316406 -89.375 87.925781 -86.554688 93 -80.921875 C 98.082031 -75.296875 100.625 -67.1875 100.625 -56.59375 L 100.625 0 L 67.6875 0 L 67.6875 -52.625 C 67.6875 -56.375 66.71875 -59.378906 64.78125 -61.640625 C 62.851562 -63.910156 60.125 -65.046875 56.59375 -65.046875 C 52.519531 -65.046875 49.210938 -63.71875 46.671875 -61.0625 C 44.128906 -58.414062 42.859375 -55.164062 42.859375 -51.3125 L 42.859375 0 L 9.9375 0 L 9.9375 -87.390625 L 36.90625 -87.390625 L 39.0625 -74.140625 C 42.476562 -78.773438 46.972656 -82.472656 52.546875 -85.234375 C 58.117188 -87.992188 63.992188 -89.375 70.171875 -89.375 Z M 70.171875 -89.375 "/></g></g></g><g fill="#1a1e2d" fill-opacity="1"><g transform="translate(306.060912, 144.864555)"><g><path d="M 11.09375 -97.640625 L 11.09375 -119.984375 L 44.015625 -119.984375 L 44.015625 -97.640625 Z M 11.09375 0 L 11.09375 -87.390625 L 44.015625 -87.390625 L 44.015625 0 Z M 11.09375 0 "/></g></g></g><g fill="#1a1e2d" fill-opacity="1"><g transform="translate(350.082607, 144.864555)"><g><path d="M 55.109375 -89.375 C 69.453125 -89.375 81.0625 -86.3125 89.9375 -80.1875 C 98.820312 -74.0625 103.265625 -64.707031 103.265625 -52.125 L 71.328125 -52.125 C 71.328125 -62.0625 65.921875 -67.03125 55.109375 -67.03125 C 44.296875 -67.03125 38.890625 -60.796875 38.890625 -48.328125 L 38.890625 -38.890625 C 38.890625 -26.535156 44.519531 -20.359375 55.78125 -20.359375 C 67.03125 -20.359375 72.65625 -25.429688 72.65625 -35.578125 L 103.265625 -35.578125 C 103.265625 -22.890625 98.820312 -13.457031 89.9375 -7.28125 C 81.0625 -1.101562 69.453125 1.984375 55.109375 1.984375 C 39.773438 1.984375 27.75 -1.875 19.03125 -9.59375 C 10.3125 -17.320312 5.953125 -28.6875 5.953125 -43.6875 C 5.953125 -58.695312 10.3125 -70.0625 19.03125 -77.78125 C 27.75 -85.507812 39.773438 -89.375 55.109375 -89.375 Z M 55.109375 -89.375 "/></g></g></g><g fill="#1a1e2d" fill-opacity="1"><g transform="translate(449.380309, 144.864555)"><g><path d="M 53.125 -89.375 C 66.476562 -89.375 77.347656 -87.140625 85.734375 -82.671875 C 94.117188 -78.203125 98.3125 -70.945312 98.3125 -60.90625 L 98.3125 -26.8125 C 98.3125 -24.9375 98.75 -23.390625 99.625 -22.171875 C 100.507812 -20.960938 101.835938 -20.359375 103.609375 -20.359375 L 109.5625 -20.359375 L 109.5625 -1.328125 C 109.226562 -1.109375 108.367188 -0.75 106.984375 -0.25 C 105.609375 0.25 103.648438 0.742188 101.109375 1.234375 C 98.578125 1.734375 95.65625 1.984375 92.34375 1.984375 C 85.945312 1.984375 80.679688 1.019531 76.546875 -0.90625 C 72.410156 -2.84375 69.566406 -5.519531 68.015625 -8.9375 C 63.828125 -5.625 59.140625 -2.972656 53.953125 -0.984375 C 48.765625 0.992188 42.695312 1.984375 35.75 1.984375 C 15.226562 1.984375 4.96875 -6.179688 4.96875 -22.515625 C 4.96875 -31.003906 7.253906 -37.484375 11.828125 -41.953125 C 16.410156 -46.421875 23.003906 -49.484375 31.609375 -51.140625 C 40.210938 -52.796875 51.46875 -53.625 65.375 -53.625 L 65.375 -57.921875 C 65.375 -61.347656 64.1875 -63.941406 61.8125 -65.703125 C 59.4375 -67.460938 56.375 -68.34375 52.625 -68.34375 C 49.207031 -68.34375 46.253906 -67.734375 43.765625 -66.515625 C 41.285156 -65.304688 40.046875 -63.378906 40.046875 -60.734375 L 40.046875 -60.078125 L 7.609375 -60.078125 C 7.503906 -60.628906 7.453125 -61.398438 7.453125 -62.390625 C 7.453125 -70.671875 11.394531 -77.238281 19.28125 -82.09375 C 27.164062 -86.945312 38.445312 -89.375 53.125 -89.375 Z M 65.375 -38.0625 C 56 -38.0625 49.078125 -37.039062 44.609375 -35 C 40.140625 -32.957031 37.90625 -30.226562 37.90625 -26.8125 C 37.90625 -21.289062 41.65625 -18.53125 49.15625 -18.53125 C 53.457031 -18.53125 57.234375 -19.6875 60.484375 -22 C 63.742188 -24.320312 65.375 -27.195312 65.375 -30.625 Z M 65.375 -38.0625 "/></g></g></g><g fill="#1a1e2d" fill-opacity="1"><g transform="translate(548.67806, 144.864555)"><g><path d="M 11.09375 0 L 11.09375 -119.984375 L 44.015625 -119.984375 L 44.015625 0 Z M 11.09375 0 "/></g></g></g></g></g></g><g clip-path="url(#b00c0c074d)"><g transform="matrix(1, 0, 0, 1, 0, 139)"><g clip-path="url(#ef936e3f00)"><g fill="#1a1e2d" fill-opacity="1"><g transform="translate(1.051894, 145.361667)"><g><path d="M 13.90625 0 L 13.90625 -113.859375 L 50.484375 -113.859375 L 50.484375 0 Z M 13.90625 0 "/></g></g></g><g fill="#1a1e2d" fill-opacity="1"><g transform="translate(55.003461, 145.361667)"><g><path d="M 70.171875 -89.375 C 80.316406 -89.375 87.925781 -86.554688 93 -80.921875 C 98.082031 -75.296875 100.625 -67.1875 100.625 -56.59375 L 100.625 0 L 67.6875 0 L 67.6875 -52.625 C 67.6875 -56.375 66.71875 -59.378906 64.78125 -61.640625 C 62.851562 -63.910156 60.125 -65.046875 56.59375 -65.046875 C 52.519531 -65.046875 49.210938 -63.71875 46.671875 -61.0625 C 44.128906 -58.414062 42.859375 -55.164062 42.859375 -51.3125 L 42.859375 0 L 9.9375 0 L 9.9375 -87.390625 L 36.90625 -87.390625 L 39.0625 -74.140625 C 42.476562 -78.773438 46.972656 -82.472656 52.546875 -85.234375 C 58.117188 -87.992188 63.992188 -89.375 70.171875 -89.375 Z M 70.171875 -89.375 "/></g></g></g><g fill="#1a1e2d" fill-opacity="1"><g transform="translate(154.963217, 145.361667)"><g><path d="M 68.1875 -87.390625 L 68.1875 -65.046875 L 49.65625 -65.046875 L 49.65625 -31.78125 C 49.65625 -27.800781 50.316406 -24.898438 51.640625 -23.078125 C 52.960938 -21.265625 55.390625 -20.359375 58.921875 -20.359375 L 68.1875 -20.359375 L 68.1875 -1 C 65.539062 -0.113281 62.117188 0.601562 57.921875 1.15625 C 53.734375 1.707031 50.09375 1.984375 47 1.984375 C 37.289062 1.984375 29.816406 0.21875 24.578125 -3.3125 C 19.335938 -6.84375 16.71875 -12.851562 16.71875 -21.34375 L 16.71875 -65.046875 L 4.46875 -65.046875 L 4.46875 -87.390625 L 18.046875 -87.390625 L 25.15625 -113.859375 L 49.65625 -113.859375 L 49.65625 -87.390625 Z M 68.1875 -87.390625 "/></g></g></g><g fill="#1a1e2d" fill-opacity="1"><g transform="translate(218.017102, 145.361667)"><g><path d="M 55.109375 -89.375 C 71.109375 -89.375 83.328125 -85.617188 91.765625 -78.109375 C 100.210938 -70.609375 104.4375 -59.132812 104.4375 -43.6875 L 104.4375 -38.0625 L 38.890625 -38.0625 C 38.890625 -31.769531 40.296875 -27.023438 43.109375 -23.828125 C 45.921875 -20.628906 50.363281 -19.03125 56.4375 -19.03125 C 61.945312 -19.03125 66 -20.1875 68.59375 -22.5 C 71.1875 -24.820312 72.484375 -27.914062 72.484375 -31.78125 L 104.4375 -31.78125 C 104.4375 -21.1875 100.40625 -12.910156 92.34375 -6.953125 C 84.289062 -0.992188 72.539062 1.984375 57.09375 1.984375 C 40.875 1.984375 28.296875 -1.789062 19.359375 -9.34375 C 10.421875 -16.90625 5.953125 -28.351562 5.953125 -43.6875 C 5.953125 -58.695312 10.3125 -70.0625 19.03125 -77.78125 C 27.75 -85.507812 39.773438 -89.375 55.109375 -89.375 Z M 56.4375 -68.34375 C 46.0625 -68.34375 40.269531 -63.4375 39.0625 -53.625 L 71.171875 -53.625 C 71.171875 -58.144531 69.875 -61.726562 67.28125 -64.375 C 64.6875 -67.019531 61.070312 -68.34375 56.4375 -68.34375 Z M 56.4375 -68.34375 "/></g></g></g><g fill="#1a1e2d" fill-opacity="1"><g transform="translate(317.97687, 145.361667)"><g><path d="M 11.09375 0 L 11.09375 -119.984375 L 44.015625 -119.984375 L 44.015625 0 Z M 11.09375 0 "/></g></g></g><g fill="#1a1e2d" fill-opacity="1"><g transform="translate(362.660608, 145.361667)"><g><path d="M 11.09375 0 L 11.09375 -119.984375 L 44.015625 -119.984375 L 44.015625 0 Z M 11.09375 0 "/></g></g></g><g fill="#1a1e2d" fill-opacity="1"><g transform="translate(407.34432, 145.361667)"><g><path d="M 11.09375 -97.640625 L 11.09375 -119.984375 L 44.015625 -119.984375 L 44.015625 -97.640625 Z M 11.09375 0 L 11.09375 -87.390625 L 44.015625 -87.390625 L 44.015625 0 Z M 11.09375 0 "/></g></g></g><g clip-path="url(#2edd2a3b11)"><g fill="#1a1e2d" fill-opacity="1"><g transform="translate(452.028032, 145.361667)"><g><path d="M 108.234375 -103.765625 C 108.234375 -97.035156 106.550781 -91.847656 103.1875 -88.203125 C 99.820312 -84.566406 94.773438 -81.867188 88.046875 -80.109375 C 91.242188 -77.679688 93.753906 -74.835938 95.578125 -71.578125 C 97.398438 -68.328125 98.3125 -64.878906 98.3125 -61.234375 C 98.3125 -51.960938 94.804688 -44.953125 87.796875 -40.203125 C 80.785156 -35.460938 72.039062 -33.09375 61.5625 -33.09375 L 48.984375 -33.09375 C 42.035156 -33.09375 38.5625 -31.492188 38.5625 -28.296875 C 38.5625 -26.753906 39.332031 -25.515625 40.875 -24.578125 C 42.425781 -23.640625 45.128906 -23.171875 48.984375 -23.171875 L 78.78125 -23.171875 C 88.488281 -23.171875 95.820312 -20.628906 100.78125 -15.546875 C 105.75 -10.472656 108.234375 -3.691406 108.234375 4.796875 C 108.234375 11.085938 106.578125 16.492188 103.265625 21.015625 C 99.960938 25.535156 95.492188 28.953125 89.859375 31.265625 C 84.234375 33.585938 78.113281 34.75 71.5 34.75 L 22.84375 34.75 C 18.863281 34.75 15.191406 33.8125 11.828125 31.9375 C 8.460938 30.0625 5.785156 27.492188 3.796875 24.234375 C 1.816406 20.984375 0.828125 17.375 0.828125 13.40625 C 0.828125 9.101562 2.148438 5.210938 4.796875 1.734375 C 7.441406 -1.734375 10.753906 -4.351562 14.734375 -6.125 C 12.078125 -8 9.976562 -10.257812 8.4375 -12.90625 C 6.894531 -15.550781 6.125 -18.421875 6.125 -21.515625 C 6.125 -25.816406 7.722656 -29.703125 10.921875 -33.171875 C 14.117188 -36.648438 18.09375 -39 22.84375 -40.21875 C 18.539062 -42.976562 15.117188 -46.148438 12.578125 -49.734375 C 10.035156 -53.316406 8.765625 -57.09375 8.765625 -61.0625 C 8.765625 -71.21875 12.875 -78.472656 21.09375 -82.828125 C 29.320312 -87.191406 40.21875 -89.375 53.78125 -89.375 C 59.738281 -89.375 64.539062 -89.039062 68.1875 -88.375 C 73.59375 -91.789062 77.09375 -94.90625 78.6875 -97.71875 C 80.289062 -100.539062 81.09375 -102.554688 81.09375 -103.765625 Z M 53.453125 -72.15625 C 49.816406 -72.15625 46.835938 -71.21875 44.515625 -69.34375 C 42.203125 -67.46875 41.046875 -64.765625 41.046875 -61.234375 C 41.046875 -57.597656 42.117188 -54.867188 44.265625 -53.046875 C 46.421875 -51.222656 49.484375 -50.3125 53.453125 -50.3125 C 57.429688 -50.3125 60.550781 -51.222656 62.8125 -53.046875 C 65.070312 -54.867188 66.203125 -57.597656 66.203125 -61.234375 C 66.203125 -64.878906 65.070312 -67.609375 62.8125 -69.421875 C 60.550781 -71.242188 57.429688 -72.15625 53.453125 -72.15625 Z M 40.71875 0 C 38.175781 0 36.101562 0.6875 34.5 2.0625 C 32.90625 3.445312 32.109375 5.40625 32.109375 7.9375 C 32.109375 10.476562 32.9375 12.519531 34.59375 14.0625 C 36.25 15.613281 38.289062 16.390625 40.71875 16.390625 L 66.53125 16.390625 C 68.957031 16.390625 71.023438 15.644531 72.734375 14.15625 C 74.441406 12.664062 75.296875 10.648438 75.296875 8.109375 C 75.296875 5.566406 74.46875 3.578125 72.8125 2.140625 C 71.164062 0.710938 69.070312 0 66.53125 0 Z M 40.71875 0 "/></g></g></g></g><g fill="#1a1e2d" fill-opacity="1"><g transform="translate(551.987776, 145.361667)"><g><path d="M 55.109375 -89.375 C 71.109375 -89.375 83.328125 -85.617188 91.765625 -78.109375 C 100.210938 -70.609375 104.4375 -59.132812 104.4375 -43.6875 L 104.4375 -38.0625 L 38.890625 -38.0625 C 38.890625 -31.769531 40.296875 -27.023438 43.109375 -23.828125 C 45.921875 -20.628906 50.363281 -19.03125 56.4375 -19.03125 C 61.945312 -19.03125 66 -20.1875 68.59375 -22.5 C 71.1875 -24.820312 72.484375 -27.914062 72.484375 -31.78125 L 104.4375 -31.78125 C 104.4375 -21.1875 100.40625 -12.910156 92.34375 -6.953125 C 84.289062 -0.992188 72.539062 1.984375 57.09375 1.984375 C 40.875 1.984375 28.296875 -1.789062 19.359375 -9.34375 C 10.421875 -16.90625 5.953125 -28.351562 5.953125 -43.6875 C 5.953125 -58.695312 10.3125 -70.0625 19.03125 -77.78125 C 27.75 -85.507812 39.773438 -89.375 55.109375 -89.375 Z M 56.4375 -68.34375 C 46.0625 -68.34375 40.269531 -63.4375 39.0625 -53.625 L 71.171875 -53.625 C 71.171875 -58.144531 69.875 -61.726562 67.28125 -64.375 C 64.6875 -67.019531 61.070312 -68.34375 56.4375 -68.34375 Z M 56.4375 -68.34375 "/></g></g></g><g fill="#1a1e2d" fill-opacity="1"><g transform="translate(651.947569, 145.361667)"><g><path d="M 70.171875 -89.375 C 80.316406 -89.375 87.925781 -86.554688 93 -80.921875 C 98.082031 -75.296875 100.625 -67.1875 100.625 -56.59375 L 100.625 0 L 67.6875 0 L 67.6875 -52.625 C 67.6875 -56.375 66.71875 -59.378906 64.78125 -61.640625 C 62.851562 -63.910156 60.125 -65.046875 56.59375 -65.046875 C 52.519531 -65.046875 49.210938 -63.71875 46.671875 -61.0625 C 44.128906 -58.414062 42.859375 -55.164062 42.859375 -51.3125 L 42.859375 0 L 9.9375 0 L 9.9375 -87.390625 L 36.90625 -87.390625 L 39.0625 -74.140625 C 42.476562 -78.773438 46.972656 -82.472656 52.546875 -85.234375 C 58.117188 -87.992188 63.992188 -89.375 70.171875 -89.375 Z M 70.171875 -89.375 "/></g></g></g><g fill="#1a1e2d" fill-opacity="1"><g transform="translate(751.907313, 145.361667)"><g><path d="M 55.109375 -89.375 C 69.453125 -89.375 81.0625 -86.3125 89.9375 -80.1875 C 98.820312 -74.0625 103.265625 -64.707031 103.265625 -52.125 L 71.328125 -52.125 C 71.328125 -62.0625 65.921875 -67.03125 55.109375 -67.03125 C 44.296875 -67.03125 38.890625 -60.796875 38.890625 -48.328125 L 38.890625 -38.890625 C 38.890625 -26.535156 44.519531 -20.359375 55.78125 -20.359375 C 67.03125 -20.359375 72.65625 -25.429688 72.65625 -35.578125 L 103.265625 -35.578125 C 103.265625 -22.890625 98.820312 -13.457031 89.9375 -7.28125 C 81.0625 -1.101562 69.453125 1.984375 55.109375 1.984375 C 39.773438 1.984375 27.75 -1.875 19.03125 -9.59375 C 10.3125 -17.320312 5.953125 -28.6875 5.953125 -43.6875 C 5.953125 -58.695312 10.3125 -70.0625 19.03125 -77.78125 C 27.75 -85.507812 39.773438 -89.375 55.109375 -89.375 Z M 55.109375 -89.375 "/></g></g></g><g fill="#1a1e2d" fill-opacity="1"><g transform="translate(851.867056, 145.361667)"><g><path d="M 55.109375 -89.375 C 71.109375 -89.375 83.328125 -85.617188 91.765625 -78.109375 C 100.210938 -70.609375 104.4375 -59.132812 104.4375 -43.6875 L 104.4375 -38.0625 L 38.890625 -38.0625 C 38.890625 -31.769531 40.296875 -27.023438 43.109375 -23.828125 C 45.921875 -20.628906 50.363281 -19.03125 56.4375 -19.03125 C 61.945312 -19.03125 66 -20.1875 68.59375 -22.5 C 71.1875 -24.820312 72.484375 -27.914062 72.484375 -31.78125 L 104.4375 -31.78125 C 104.4375 -21.1875 100.40625 -12.910156 92.34375 -6.953125 C 84.289062 -0.992188 72.539062 1.984375 57.09375 1.984375 C 40.875 1.984375 28.296875 -1.789062 19.359375 -9.34375 C 10.421875 -16.90625 5.953125 -28.351562 5.953125 -43.6875 C 5.953125 -58.695312 10.3125 -70.0625 19.03125 -77.78125 C 27.75 -85.507812 39.773438 -89.375 55.109375 -89.375 Z M 56.4375 -68.34375 C 46.0625 -68.34375 40.269531 -63.4375 39.0625 -53.625 L 71.171875 -53.625 C 71.171875 -58.144531 69.875 -61.726562 67.28125 -64.375 C 64.6875 -67.019531 61.070312 -68.34375 56.4375 -68.34375 Z M 56.4375 -68.34375 "/></g></g></g></g></g></g><g transform="matrix(1, 0, 0, 1, 57, 284)"><g clip-path="url(#7f97645b84)"><g fill="#80b8d4" fill-opacity="1"><g transform="translate(0.906734, 136.13394)"><g><path d="M 64.21875 -108.0625 C 82.539062 -108.0625 96.691406 -103.378906 106.671875 -94.015625 C 116.648438 -84.648438 121.640625 -71.015625 121.640625 -53.109375 C 121.640625 -35.203125 116.648438 -21.5625 106.671875 -12.1875 C 96.691406 -2.820312 82.539062 1.859375 64.21875 1.859375 C 45.894531 1.859375 31.769531 -2.796875 21.84375 -12.109375 C 11.914062 -21.429688 6.953125 -35.097656 6.953125 -53.109375 C 6.953125 -71.117188 11.914062 -84.78125 21.84375 -94.09375 C 31.769531 -103.40625 45.894531 -108.0625 64.21875 -108.0625 Z M 64.21875 -82.59375 C 56.914062 -82.59375 51.359375 -80.378906 47.546875 -75.953125 C 43.734375 -71.523438 41.828125 -65.554688 41.828125 -58.046875 L 41.828125 -48.171875 C 41.828125 -40.648438 43.734375 -34.675781 47.546875 -30.25 C 51.359375 -25.832031 56.914062 -23.625 64.21875 -23.625 C 71.53125 -23.625 77.113281 -25.832031 80.96875 -30.25 C 84.832031 -34.675781 86.765625 -40.648438 86.765625 -48.171875 L 86.765625 -58.046875 C 86.765625 -65.554688 84.832031 -71.523438 80.96875 -75.953125 C 77.113281 -80.378906 71.53125 -82.59375 64.21875 -82.59375 Z M 64.21875 -82.59375 "/></g></g></g><g fill="#80b8d4" fill-opacity="1"><g transform="translate(129.500627, 136.13394)"><g><path d="M 56.03125 -108.0625 C 69.625 -108.0625 80.789062 -105.304688 89.53125 -99.796875 C 98.28125 -94.296875 102.757812 -86.140625 102.96875 -75.328125 L 102.96875 -73.484375 L 71.015625 -73.484375 L 71.015625 -74.09375 C 71.015625 -77.1875 69.878906 -79.757812 67.609375 -81.8125 C 65.347656 -83.875 61.898438 -84.90625 57.265625 -84.90625 C 52.742188 -84.90625 49.269531 -84.234375 46.84375 -82.890625 C 44.425781 -81.554688 43.21875 -79.910156 43.21875 -77.953125 C 43.21875 -75.179688 44.863281 -73.125 48.15625 -71.78125 C 51.457031 -70.445312 56.757812 -69.054688 64.0625 -67.609375 C 72.601562 -65.859375 79.625 -64.03125 85.125 -62.125 C 90.632812 -60.226562 95.445312 -57.117188 99.5625 -52.796875 C 103.6875 -48.472656 105.800781 -42.609375 105.90625 -35.203125 C 105.90625 -22.640625 101.65625 -13.320312 93.15625 -7.25 C 84.664062 -1.175781 73.320312 1.859375 59.125 1.859375 C 42.550781 1.859375 29.660156 -0.914062 20.453125 -6.46875 C 11.242188 -12.03125 6.640625 -21.863281 6.640625 -35.96875 L 38.90625 -35.96875 C 38.90625 -30.613281 40.289062 -27.035156 43.0625 -25.234375 C 45.84375 -23.429688 50.164062 -22.53125 56.03125 -22.53125 C 60.351562 -22.53125 63.929688 -22.992188 66.765625 -23.921875 C 69.597656 -24.847656 71.015625 -26.753906 71.015625 -29.640625 C 71.015625 -32.210938 69.441406 -34.140625 66.296875 -35.421875 C 63.160156 -36.710938 58.039062 -38.078125 50.9375 -39.515625 C 42.289062 -41.367188 35.140625 -43.296875 29.484375 -45.296875 C 23.828125 -47.304688 18.890625 -50.628906 14.671875 -55.265625 C 10.453125 -59.898438 8.34375 -66.175781 8.34375 -74.09375 C 8.34375 -85.726562 12.84375 -94.296875 21.84375 -99.796875 C 30.851562 -105.304688 42.25 -108.0625 56.03125 -108.0625 Z M 56.03125 -108.0625 "/></g></g></g></g></g><g clip-path="url(#c9dbcac195)"><g transform="matrix(1, 0, 0, 1, 0, 283)"><g clip-path="url(#1cad0d832a)"><g fill="#80b8d4" fill-opacity="1"><g transform="translate(1.051894, 138.745041)"><g><path d="M 56.234375 -116.75 C 50.003906 -107.039062 44.9375 -95.554688 41.03125 -82.296875 C 37.125 -69.046875 35.171875 -56.820312 35.171875 -45.625 C 35.171875 -34.320312 37.125 -22.097656 41.03125 -8.953125 C 44.9375 4.191406 50.003906 15.625 56.234375 25.34375 L 37.234375 25.34375 C 28.148438 15.625 21.125 4.585938 16.15625 -7.765625 C 11.195312 -20.117188 8.71875 -32.738281 8.71875 -45.625 C 8.71875 -58.613281 11.195312 -71.285156 16.15625 -83.640625 C 21.125 -96.003906 28.148438 -107.039062 37.234375 -116.75 Z M 56.234375 -116.75 "/></g></g></g></g></g></g><g clip-path="url(#2091bbedb7)"><g transform="matrix(1, 0, 0, 1, 296, 283)"><g clip-path="url(#d070ebdc47)"><g fill="#80b8d4" fill-opacity="1"><g transform="translate(0.0391854, 138.745041)"><g><path d="M 24.390625 -116.75 C 33.472656 -107.039062 40.492188 -96.003906 45.453125 -83.640625 C 50.421875 -71.285156 52.90625 -58.613281 52.90625 -45.625 C 52.90625 -32.738281 50.421875 -20.117188 45.453125 -7.765625 C 40.492188 4.585938 33.472656 15.625 24.390625 25.34375 L 5.390625 25.34375 C 11.617188 15.625 16.6875 4.191406 20.59375 -8.953125 C 24.5 -22.097656 26.453125 -34.320312 26.453125 -45.625 C 26.453125 -56.820312 24.5 -69.046875 20.59375 -82.296875 C 16.6875 -95.554688 11.617188 -107.039062 5.390625 -116.75 Z M 24.390625 -116.75 "/></g></g></g></g></g></g></g></g></svg>